<svg width="20" height="20" viewBox="0 0 20 20" fill="none" xmlns="http://www.w3.org/2000/svg">
<path class="svg-fill" fill-rule="evenodd" clip-rule="evenodd" d="M19.9588 9.8407C18.8978 5.74872 14.0078 3 10.1061 3C6.18427 3 1.08652 5.8092 0.0411987 9.8407L0 10L0.0411987 10.1593C1.08652 14.1908 6.18427 17 10.1061 17C14.0078 17 18.8978 14.2513 19.9588 10.1593L20 10L19.9588 9.8407ZM10.106 15.7586C6.67819 15.7586 2.2536 13.402 1.25562 10.0001C2.2536 6.59808 6.67819 4.24146 10.106 4.24146C13.4352 4.24146 17.7496 6.59808 18.7442 10.0001C17.7496 13.402 13.4352 15.7586 10.106 15.7586ZM9.26331 6.38849C9.50278 6.33844 9.75052 6.31213 10.0042 6.31213C12.0498 6.31213 13.7083 8.01202 13.7083 10.1088C13.7083 12.2056 12.05 13.9055 10.0042 13.9055C8.32626 13.9055 6.91068 12.7612 6.45532 11.1927C6.46786 11.193 6.48038 11.1938 6.49292 11.1947C6.50861 11.1957 6.52432 11.1968 6.54025 11.1968C8.34982 11.1968 9.81653 9.81335 9.81653 8.10669C9.81653 7.47089 9.61252 6.87988 9.26331 6.38849Z" fill="#CDCCCC"/>
</svg>
